<?xml version="1.0" encoding="UTF-8" standalone="no"?>
<!DOCTYPE svg PUBLIC "-//W3C//DTD SVG 1.1//EN"
 "http://www.w3.org/Graphics/SVG/1.1/DTD/svg11.dtd">
<!-- Generated by graphviz version 13.0.0 (20250608.1624)
 -->
<!-- Title: FractalField Pages: 1 -->
<svg width="1290pt" height="880pt"
 viewBox="0.00 0.00 1290.00 880.00" xmlns="http://www.w3.org/2000/svg" xmlns:xlink="http://www.w3.org/1999/xlink">
<g id="graph0" class="graph" transform="scale(1 1) rotate(0) translate(4 876.12)">
<title>FractalField</title>
<polygon fill="white" stroke="none" points="-4,4 -4,-876.12 1286,-876.12 1286,4 -4,4"/>
<g id="clust1" class="cluster">
<title>cluster_sacred_core</title>
<polygon fill="#f0f8ff" stroke="#f0f8ff" points="8,-8 8,-825.21 274,-825.21 274,-8 8,-8"/>
<text xml:space="preserve" text-anchor="middle" x="141" y="-807.91" font-family="Arial Bold" font-size="14.00">Sacred Tetrahedral Core</text>
<text xml:space="preserve" text-anchor="middle" x="141" y="-792.16" font-family="Arial Bold" font-size="14.00">(Frequency Resonance)</text>
</g>
<g id="clust2" class="cluster">
<title>cluster_field_heart</title>
<polygon fill="#fff8dc" stroke="#fff8dc" points="304,-603.71 304,-864.12 564,-864.12 564,-603.71 304,-603.71"/>
<text xml:space="preserve" text-anchor="middle" x="434" y="-846.82" font-family="Times,serif" font-size="14.00">Sacred Heart Layer</text>
</g>
<g id="clust3" class="cluster">
<title>cluster_support</title>
<polygon fill="#f5f5f5" stroke="#f5f5f5" points="412,-326.03 412,-573.71 1274,-573.71 1274,-326.03 412,-326.03"/>
<text xml:space="preserve" text-anchor="middle" x="843" y="-556.41" font-family="Times,serif" font-size="14.00">Support &amp; Interface Layers</text>
</g>
<g id="clust4" class="cluster">
<title>cluster_legend</title>
<polygon fill="#fffacd" stroke="#fffacd" points="597,-695.42 597,-772.42 1228,-772.42 1228,-695.42 597,-695.42"/>
<text xml:space="preserve" text-anchor="middle" x="912.5" y="-755.12" font-family="Times,serif" font-size="14.00">Frequency Resonance Map</text>
</g>
<!-- OBI_WAN -->
<g id="node1" class="node">
<title>OBI_WAN</title>
<ellipse fill="#9370db" stroke="black" cx="92" cy="-721.67" rx="56.04" ry="56.04"/>
<text xml:space="preserve" text-anchor="middle" x="92" y="-745.89" font-family="Arial" font-size="12.00" fill="white">●</text>
<text xml:space="preserve" text-anchor="middle" x="92" y="-731.64" font-family="Arial" font-size="12.00" fill="white">OBI&#45;WAN</text>
<text xml:space="preserve" text-anchor="middle" x="92" y="-717.39" font-family="Arial" font-size="12.00" fill="white">Observer</text>
<text xml:space="preserve" text-anchor="middle" x="92" y="-703.14" font-family="Arial" font-size="12.00" fill="white">528 Hz</text>
<text xml:space="preserve" text-anchor="middle" x="92" y="-688.89" font-family="Arial" font-size="12.00" fill="white">Port 6000</text>
</g>
<!-- TATA -->
<g id="node2" class="node">
<title>TATA</title>
<ellipse fill="#4b0082" stroke="black" cx="210" cy="-437.62" rx="56.04" ry="56.04"/>
<text xml:space="preserve" text-anchor="middle" x="210" y="-461.85" font-family="Arial" font-size="12.00" fill="white">▼</text>
<text xml:space="preserve" text-anchor="middle" x="210" y="-447.6" font-family="Arial" font-size="12.00" fill="white">TATA</text>
<text xml:space="preserve" text-anchor="middle" x="210" y="-433.35" font-family="Arial" font-size="12.00" fill="white">Temporal</text>
<text xml:space="preserve" text-anchor="middle" x="210" y="-419.1" font-family="Arial" font-size="12.00" fill="white">741 Hz</text>
<text xml:space="preserve" text-anchor="middle" x="210" y="-404.85" font-family="Arial" font-size="12.00" fill="white">Port 7000</text>
</g>
<!-- OBI_WAN&#45;&gt;TATA -->
<g id="edge1" class="edge">
<title>OBI_WAN&#45;&gt;TATA</title>
<path fill="none" stroke="#9370db" d="M123.18,-674.96C146.56,-637.07 158.15,-605.31 190.04,-502.42"/>
<polygon fill="#9370db" stroke="#9370db" points="193.34,-503.6 192.95,-493.01 186.65,-501.53 193.34,-503.6"/>
<text xml:space="preserve" text-anchor="middle" x="140.5" y="-584.21" font-family="Arial" font-size="10.00">Memory→Law</text>
</g>
<!-- ATLAS -->
<g id="node3" class="node">
<title>ATLAS</title>
<ellipse fill="#8b4513" stroke="black" cx="210" cy="-229.99" rx="56.04" ry="56.04"/>
<text xml:space="preserve" text-anchor="middle" x="210" y="-254.22" font-family="Arial" font-size="12.00" fill="white">▲</text>
<text xml:space="preserve" text-anchor="middle" x="210" y="-239.97" font-family="Arial" font-size="12.00" fill="white">ATLAS</text>
<text xml:space="preserve" text-anchor="middle" x="210" y="-225.72" font-family="Arial" font-size="12.00" fill="white">Compass</text>
<text xml:space="preserve" text-anchor="middle" x="210" y="-211.47" font-family="Arial" font-size="12.00" fill="white">256 Hz</text>
<text xml:space="preserve" text-anchor="middle" x="210" y="-197.22" font-family="Arial" font-size="12.00" fill="white">Port 2560</text>
</g>
<!-- OBI_WAN&#45;&gt;ATLAS -->
<g id="edge5" class="edge">
<title>OBI_WAN&#45;&gt;ATLAS</title>
<path fill="none" stroke="#8a2be2" stroke-dasharray="5,2" d="M110.87,-668.41C142.33,-577.86 151.53,-535.57 197.28,-296.56"/>
<polygon fill="#8a2be2" stroke="#8a2be2" points="200.69,-297.36 199.13,-286.88 193.81,-296.05 200.69,-297.36"/>
<text xml:space="preserve" text-anchor="middle" x="100" y="-434.12" font-family="Arial" font-size="10.00">Observe→Guide</text>
</g>
<!-- TATA&#45;&gt;ATLAS -->
<g id="edge2" class="edge">
<title>TATA&#45;&gt;ATLAS</title>
<path fill="none" stroke="#4b0082" d="M223.11,-382.69C233.11,-338.89 236.09,-316.39 232.05,-293.6"/>
<polygon fill="#4b0082" stroke="#4b0082" points="235.53,-293.14 229.94,-284.15 228.7,-294.67 235.53,-293.14"/>
<text xml:space="preserve" text-anchor="middle" x="227.88" y="-306.53" font-family="Arial" font-size="10.00">Law→Knowledge</text>
</g>
<!-- DOJO -->
<g id="node4" class="node">
<title>DOJO</title>
<ellipse fill="#dc143c" stroke="black" cx="180" cy="-70.98" rx="54.98" ry="54.98"/>
<text xml:space="preserve" text-anchor="middle" x="180" y="-94.45" font-family="Arial" font-size="12.00" fill="white">◼︎</text>
<text xml:space="preserve" text-anchor="middle" x="180" y="-81.7" font-family="Arial" font-size="12.00" fill="white">DOJO</text>
<text xml:space="preserve" text-anchor="middle" x="180" y="-67.45" font-family="Arial" font-size="12.00" fill="white">Manifest</text>
<text xml:space="preserve" text-anchor="middle" x="180" y="-53.2" font-family="Arial" font-size="12.00" fill="white">963 Hz</text>
<text xml:space="preserve" text-anchor="middle" x="180" y="-38.95" font-family="Arial" font-size="12.00" fill="white">Port 8000</text>
</g>
<!-- TATA&#45;&gt;DOJO -->
<g id="edge6" class="edge">
<title>TATA&#45;&gt;DOJO</title>
<path fill="none" stroke="#6b0080" stroke-dasharray="5,2" d="M210.17,-381.36C210.52,-232.23 209.35,-189.96 196.9,-135.33"/>
<polygon fill="#6b0080" stroke="#6b0080" points="200.32,-134.6 194.61,-125.68 193.51,-136.22 200.32,-134.6"/>
<text xml:space="preserve" text-anchor="middle" x="94.88" y="-226.49" font-family="Arial" font-size="10.00">Validate→Manifest</text>
</g>
<!-- ATLAS&#45;&gt;DOJO -->
<g id="edge3" class="edge">
<title>ATLAS&#45;&gt;DOJO</title>
<path fill="none" stroke="#8b4513" d="M205.17,-173.74C203.62,-157.05 202.23,-144.57 200.63,-134.32"/>
<polygon fill="#8b4513" stroke="#8b4513" points="204.11,-133.91 198.9,-124.69 197.22,-135.15 204.11,-133.91"/>
<text xml:space="preserve" text-anchor="middle" x="222.75" y="-146.46" font-family="Arial" font-size="10.00">Knowledge→Action</text>
</g>
<!-- DOJO&#45;&gt;OBI_WAN -->
<g id="edge4" class="edge">
<title>DOJO&#45;&gt;OBI_WAN</title>
<path fill="none" stroke="#dc143c" d="M81.98,-666.33C26.71,-359.4 28.45,-323.57 145.43,-128.16"/>
<polygon fill="#dc143c" stroke="#dc143c" points="148.35,-130.1 150.49,-119.73 142.35,-126.5 148.35,-130.1"/>
<text xml:space="preserve" text-anchor="middle" x="71.12" y="-306.53" font-family="Arial" font-size="10.00">Action→Observe</text>
</g>
<!-- INTERFACE -->
<g id="node10" class="node">
<title>INTERFACE</title>
<ellipse fill="#20b2aa" stroke="black" cx="1202" cy="-437.62" rx="64.35" ry="64.35"/>
<text xml:space="preserve" text-anchor="middle" x="1202" y="-447.6" font-family="Arial" font-size="12.00" fill="white">○</text>
<text xml:space="preserve" text-anchor="middle" x="1202" y="-433.35" font-family="Arial" font-size="12.00" fill="white">INTERFACE</text>
<text xml:space="preserve" text-anchor="middle" x="1202" y="-419.1" font-family="Arial" font-size="12.00" fill="white">berjak.com.au</text>
</g>
<!-- DOJO&#45;&gt;INTERFACE -->
<g id="edge13" class="edge">
<title>DOJO&#45;&gt;INTERFACE</title>
<path fill="none" stroke="#20b2aa" d="M1153.12,-395.32C764.94,-59.77 729.81,-46.44 246.68,-67.95"/>
<polygon fill="#20b2aa" stroke="#20b2aa" points="246.53,-64.45 236.7,-68.4 246.84,-71.45 246.53,-64.45"/>
<text xml:space="preserve" text-anchor="middle" x="857.12" y="-226.49" font-family="Arial" font-size="10.00">Publish</text>
</g>
<!-- FIELD -->
<g id="node5" class="node">
<title>FIELD</title>
<polygon fill="#ffd700" stroke="black" points="434,-831.62 311.67,-666.69 556.33,-666.69 434,-831.62"/>
<text xml:space="preserve" text-anchor="middle" x="434" y="-745.14" font-family="Arial" font-size="12.00">△</text>
<text xml:space="preserve" text-anchor="middle" x="434" y="-732.39" font-family="Arial" font-size="12.00">FIELD</text>
<text xml:space="preserve" text-anchor="middle" x="434" y="-718.14" font-family="Arial" font-size="12.00">Sacred Heart</text>
<text xml:space="preserve" text-anchor="middle" x="434" y="-703.89" font-family="Arial" font-size="12.00">432 Hz</text>
<text xml:space="preserve" text-anchor="middle" x="434" y="-689.64" font-family="Arial" font-size="12.00">Port 3000</text>
</g>
<!-- FIELD&#45;&gt;OBI_WAN -->
<g id="edge7" class="edge">
<title>FIELD&#45;&gt;OBI_WAN</title>
<path fill="none" stroke="#ffd700" d="M92.34,-721.79C206.44,-762.2 208.61,-762.85 422.65,-723.74"/>
<polygon fill="#ffd700" stroke="#ffd700" points="422.97,-727.24 432.18,-722 421.71,-720.36 422.97,-727.24"/>
</g>
<!-- FIELD&#45;&gt;TATA -->
<g id="edge8" class="edge">
<title>FIELD&#45;&gt;TATA</title>
<path fill="none" stroke="#ffd700" d="M348.07,-666.36C271.37,-614.33 252.52,-586.73 227.98,-502.98"/>
<polygon fill="#ffd700" stroke="#ffd700" points="231.35,-502.01 225.22,-493.37 224.62,-503.95 231.35,-502.01"/>
<text xml:space="preserve" text-anchor="middle" x="248.25" y="-584.21" font-family="Arial" font-size="10.00">Route→Validate</text>
</g>
<!-- FIELD&#45;&gt;ATLAS -->
<g id="edge9" class="edge">
<title>FIELD&#45;&gt;ATLAS</title>
<path fill="none" stroke="#ffd700" d="M381.93,-666.29C232.31,-506.08 216.28,-472.85 211.44,-297.94"/>
<polygon fill="#ffd700" stroke="#ffd700" points="214.94,-297.91 211.18,-288 207.94,-298.09 214.94,-297.91"/>
<text xml:space="preserve" text-anchor="middle" x="332.75" y="-434.12" font-family="Arial" font-size="10.00">Route→Guide</text>
</g>
<!-- FIELD&#45;&gt;DOJO -->
<g id="edge10" class="edge">
<title>FIELD&#45;&gt;DOJO</title>
<path fill="none" stroke="#ffd700" d="M391.01,-666.31C186.67,-402.5 170.36,-366.76 177.6,-137.68"/>
<polygon fill="#ffd700" stroke="#ffd700" points="181.09,-137.89 177.92,-127.78 174.1,-137.66 181.09,-137.89"/>
<text xml:space="preserve" text-anchor="middle" x="428.75" y="-306.53" font-family="Arial" font-size="10.00">Route→Manifest</text>
</g>
<!-- FIELD_LIVING -->
<g id="node6" class="node">
<title>FIELD_LIVING</title>
<ellipse fill="#32cd32" stroke="black" cx="486" cy="-437.62" rx="65.94" ry="65.94"/>
<text xml:space="preserve" text-anchor="middle" x="486" y="-453.97" font-family="Arial" font-size="12.00">◎</text>
<text xml:space="preserve" text-anchor="middle" x="486" y="-441.22" font-family="Arial" font-size="12.00">FIELD&#45;LIVING</text>
<text xml:space="preserve" text-anchor="middle" x="486" y="-426.97" font-family="Arial" font-size="12.00">Infrastructure</text>
<text xml:space="preserve" text-anchor="middle" x="486" y="-412.72" font-family="Arial" font-size="12.00">9000&#45;9999</text>
</g>
<!-- FIELD&#45;&gt;FIELD_LIVING -->
<g id="edge12" class="edge">
<title>FIELD&#45;&gt;FIELD_LIVING</title>
<path fill="none" stroke="#32cd32" d="M424.93,-666.44C419.27,-619.42 425.71,-591.19 457.5,-509.4"/>
<polygon fill="#32cd32" stroke="#32cd32" points="460.57,-511.15 460.95,-500.56 454.05,-508.6 460.57,-511.15"/>
<text xml:space="preserve" text-anchor="middle" x="473" y="-584.21" font-family="Arial" font-size="10.00">Process</text>
</g>
<!-- FIELD_DEV -->
<g id="node7" class="node">
<title>FIELD_DEV</title>
<ellipse fill="#ff8c00" stroke="black" cx="632" cy="-437.62" rx="61.7" ry="61.7"/>
<text xml:space="preserve" text-anchor="middle" x="632" y="-454.72" font-family="Arial" font-size="12.00">●</text>
<text xml:space="preserve" text-anchor="middle" x="632" y="-440.47" font-family="Arial" font-size="12.00">FIELD&#45;DEV</text>
<text xml:space="preserve" text-anchor="middle" x="632" y="-426.22" font-family="Arial" font-size="12.00">Development</text>
<text xml:space="preserve" text-anchor="middle" x="632" y="-411.97" font-family="Arial" font-size="12.00">Archive</text>
</g>
<!-- FIELD&#45;&gt;FIELD_DEV -->
<g id="edge14" class="edge">
<title>FIELD&#45;&gt;FIELD_DEV</title>
<path fill="none" stroke="#ff8c00" stroke-dasharray="1,5" d="M470.81,-666.33C496.37,-628.35 519.77,-595.19 589.35,-497.49"/>
<polygon fill="#ff8c00" stroke="#ff8c00" points="592.17,-499.56 595.12,-489.38 586.47,-495.5 592.17,-499.56"/>
<text xml:space="preserve" text-anchor="middle" x="589.5" y="-584.21" font-family="Arial" font-size="10.00">Archive</text>
</g>
<!-- SDR -->
<g id="node9" class="node">
<title>SDR</title>
<ellipse fill="#4682b4" stroke="black" cx="803" cy="-437.62" rx="91.39" ry="91.39"/>
<text xml:space="preserve" text-anchor="middle" x="803" y="-453.97" font-family="Arial" font-size="12.00" fill="white">◉</text>
<text xml:space="preserve" text-anchor="middle" x="803" y="-441.22" font-family="Arial" font-size="12.00" fill="white">SDR</text>
<text xml:space="preserve" text-anchor="middle" x="803" y="-426.97" font-family="Arial" font-size="12.00" fill="white">Canonical</text>
<text xml:space="preserve" text-anchor="middle" x="803" y="-412.72" font-family="Arial" font-size="12.00" fill="white">/Volumes/Akron/SDR</text>
</g>
<!-- FIELD&#45;&gt;SDR -->
<g id="edge15" class="edge">
<title>FIELD&#45;&gt;SDR</title>
<path fill="none" stroke="#4682b4" stroke-dasharray="1,5" d="M542.3,-686.31C605.45,-659.95 643.28,-623.78 736.24,-515.87"/>
<polygon fill="#4682b4" stroke="#4682b4" points="738.76,-518.3 742.63,-508.43 733.46,-513.73 738.76,-518.3"/>
<text xml:space="preserve" text-anchor="middle" x="737.75" y="-584.21" font-family="Arial" font-size="10.00">Canonical</text>
</g>
<!-- INTAKE -->
<g id="node8" class="node">
<title>INTAKE</title>
<ellipse fill="#87ceeb" stroke="black" cx="1016" cy="-437.62" rx="103.59" ry="103.59"/>
<text xml:space="preserve" text-anchor="middle" x="1016" y="-453.97" font-family="Arial" font-size="12.00">◐</text>
<text xml:space="preserve" text-anchor="middle" x="1016" y="-441.22" font-family="Arial" font-size="12.00">INTAKE</text>
<text xml:space="preserve" text-anchor="middle" x="1016" y="-426.97" font-family="Arial" font-size="12.00">Buffer</text>
<text xml:space="preserve" text-anchor="middle" x="1016" y="-412.72" font-family="Arial" font-size="12.00">/Volumes/Akron/INTAKE</text>
</g>
<!-- INTAKE&#45;&gt;FIELD -->
<g id="edge11" class="edge">
<title>INTAKE&#45;&gt;FIELD</title>
<path fill="none" stroke="#87ceeb" d="M521.57,-714.07C754.09,-692.88 800.41,-674.63 939.1,-523.36"/>
<polygon fill="#87ceeb" stroke="#87ceeb" points="941.46,-525.97 945.62,-516.23 936.29,-521.25 941.46,-525.97"/>
<text xml:space="preserve" text-anchor="middle" x="912.5" y="-584.21" font-family="Arial" font-size="10.00">Ingest</text>
</g>
<!-- freq_256 -->
<g id="node11" class="node">
<title>freq_256</title>
<polygon fill="#8b4513" stroke="black" points="688.75,-739.92 605.25,-739.92 605.25,-703.42 688.75,-703.42 688.75,-739.92"/>
<text xml:space="preserve" text-anchor="middle" x="647" y="-724.52" font-family="Arial" font-size="12.00" fill="white">256 Hz</text>
<text xml:space="preserve" text-anchor="middle" x="647" y="-710.27" font-family="Arial" font-size="12.00" fill="white">Root Chakra</text>
</g>
<!-- freq_341 -->
<g id="node12" class="node">
<title>freq_341</title>
<polygon fill="#daa520" stroke="black" points="791.12,-739.92 706.88,-739.92 706.88,-703.42 791.12,-703.42 791.12,-739.92"/>
<text xml:space="preserve" text-anchor="middle" x="749" y="-724.52" font-family="Arial" font-size="12.00">341.3 Hz</text>
<text xml:space="preserve" text-anchor="middle" x="749" y="-710.27" font-family="Arial" font-size="12.00">Solar Plexus</text>
</g>
<!-- freq_384 -->
<g id="node13" class="node">
<title>freq_384</title>
<polygon fill="#32cd32" stroke="black" points="896.62,-739.92 809.38,-739.92 809.38,-703.42 896.62,-703.42 896.62,-739.92"/>
<text xml:space="preserve" text-anchor="middle" x="853" y="-724.52" font-family="Arial" font-size="12.00">384 Hz</text>
<text xml:space="preserve" text-anchor="middle" x="853" y="-710.27" font-family="Arial" font-size="12.00">Heart Chakra</text>
</g>
<!-- freq_432 -->
<g id="node14" class="node">
<title>freq_432</title>
<polygon fill="#ffd700" stroke="black" points="981.5,-739.92 914.5,-739.92 914.5,-703.42 981.5,-703.42 981.5,-739.92"/>
<text xml:space="preserve" text-anchor="middle" x="948" y="-724.52" font-family="Arial" font-size="12.00">432 Hz</text>
<text xml:space="preserve" text-anchor="middle" x="948" y="-710.27" font-family="Arial" font-size="12.00">Universal</text>
</g>
<!-- freq_528 -->
<g id="node15" class="node">
<title>freq_528</title>
<polygon fill="#9370db" stroke="black" points="1054.12,-739.92 999.88,-739.92 999.88,-703.42 1054.12,-703.42 1054.12,-739.92"/>
<text xml:space="preserve" text-anchor="middle" x="1027" y="-724.52" font-family="Arial" font-size="12.00" fill="white">528 Hz</text>
<text xml:space="preserve" text-anchor="middle" x="1027" y="-710.27" font-family="Arial" font-size="12.00" fill="white">Love</text>
</g>
<!-- freq_741 -->
<g id="node16" class="node">
<title>freq_741</title>
<polygon fill="#4b0082" stroke="black" points="1147.62,-739.92 1072.38,-739.92 1072.38,-703.42 1147.62,-703.42 1147.62,-739.92"/>
<text xml:space="preserve" text-anchor="middle" x="1110" y="-724.52" font-family="Arial" font-size="12.00" fill="white">741 Hz</text>
<text xml:space="preserve" text-anchor="middle" x="1110" y="-710.27" font-family="Arial" font-size="12.00" fill="white">Awakening</text>
</g>
<!-- freq_963 -->
<g id="node17" class="node">
<title>freq_963</title>
<polygon fill="#dc143c" stroke="black" points="1220.12,-739.92 1165.88,-739.92 1165.88,-703.42 1220.12,-703.42 1220.12,-739.92"/>
<text xml:space="preserve" text-anchor="middle" x="1193" y="-724.52" font-family="Arial" font-size="12.00" fill="white">963 Hz</text>
<text xml:space="preserve" text-anchor="middle" x="1193" y="-710.27" font-family="Arial" font-size="12.00" fill="white">Crown</text>
</g>
</g>
</svg>
